# xmcd
#
# Track frame offsets:
#	150
#	10783
#	27285
#	49287
#	64358
#	86392
#	105910
#	120210
#	155024
#
# Disc length: 2248 seconds
# Revision: 0
# Processed by: cddbd v1.5.2PL0 Copyright (c) Steve Scherf et al.
# Submitted via: dBpowerAMP V12.0
#
DISCID=6408c609
DTITLE=Savoy Brown - Raw Sienna
DYEAR=1970
DGENRE=Bluesrock
TTITLE0=A Hard Way To Go
TTITLE1=That Same Feelin'
TTITLE2=Master Hare
TTITLE3=Needle And Spoon
TTITLE4=A Little More Wine
TTITLE5=I'm Crying
TTITLE6=Stay While The Night Is Young
TTITLE7=Is That So
TTITLE8=When I Was A Young Boy
EXTD=
EXTT0=
EXTT1=
EXTT2=
EXTT3=
EXTT4=
EXTT5=
EXTT6=
EXTT7=
EXTT8=
PLAYORDER=
